# xmcd
#
# Track frame offsets:
#	182
#	19610
#	39207
#	71712
#
# Disc length: 1388 seconds
#
# Revision: 0
# Processed by: cddbd v1.5.1PL0 Copyright (c) Steve Scherf et al.
# Submitted via: dBpowerAMP V4.0
#
DISCID=28056a04
DTITLE=Christina Aguilera - I Turn To You CD Maxi
DYEAR=2000
DGENRE=Top 40
TTITLE0=I Turn To You (Cutfather and Joe Remix)
TTITLE1=I Turn To You (Thunderpuss Remix)
TTITLE2=I Turn To You (Thunderpuss Club Mix)
TTITLE3=I Turn To You (Thunderpuss Club Stripped Mix)
EXTD=
EXTT0=
EXTT1=
EXTT2=
EXTT3=
PLAYORDER=
